<mxfile host="app.diagrams.net" modified="2023-10-31T10:42:57.857Z" agent="Mozilla/5.0 (Windows NT 10.0; Win64; x64) AppleWebKit/537.36 (KHTML, like Gecko) Chrome/118.0.0.0 Safari/537.36" etag="S-Yo4Rm8dBvpoaDl4FYw" version="22.0.8" type="device">
  <diagram name="Page-1" id="i0E2k2FMlng2EdwtBEkr">
    <mxGraphModel dx="2049" dy="1114" grid="1" gridSize="10" guides="1" tooltips="1" connect="1" arrows="1" fold="1" page="1" pageScale="1" pageWidth="850" pageHeight="1100" math="0" shadow="0">
      <root>
        <mxCell id="0" />
        <mxCell id="1" parent="0" />
        <mxCell id="80YRyTSErhXEZiGLYpS1-1" value="AWS Cloud" style="points=[[0,0],[0.25,0],[0.5,0],[0.75,0],[1,0],[1,0.25],[1,0.5],[1,0.75],[1,1],[0.75,1],[0.5,1],[0.25,1],[0,1],[0,0.75],[0,0.5],[0,0.25]];outlineConnect=0;gradientColor=none;html=1;whiteSpace=wrap;fontSize=12;fontStyle=0;container=1;pointerEvents=0;collapsible=0;recursiveResize=0;shape=mxgraph.aws4.group;grIcon=mxgraph.aws4.group_aws_cloud_alt;strokeColor=#232F3E;fillColor=none;verticalAlign=top;align=left;spacingLeft=30;fontColor=#232F3E;dashed=0;" parent="1" vertex="1">
          <mxGeometry x="20" y="240" width="810" height="840" as="geometry" />
        </mxCell>
        <mxCell id="80YRyTSErhXEZiGLYpS1-3" value="eu-central-1" style="points=[[0,0],[0.25,0],[0.5,0],[0.75,0],[1,0],[1,0.25],[1,0.5],[1,0.75],[1,1],[0.75,1],[0.5,1],[0.25,1],[0,1],[0,0.75],[0,0.5],[0,0.25]];outlineConnect=0;gradientColor=none;html=1;whiteSpace=wrap;fontSize=12;fontStyle=0;container=1;pointerEvents=0;collapsible=0;recursiveResize=0;shape=mxgraph.aws4.group;grIcon=mxgraph.aws4.group_region;strokeColor=#147EBA;fillColor=none;verticalAlign=top;align=left;spacingLeft=30;fontColor=#147EBA;dashed=1;" parent="80YRyTSErhXEZiGLYpS1-1" vertex="1">
          <mxGeometry x="40" y="40" width="740" height="770" as="geometry" />
        </mxCell>
        <mxCell id="80YRyTSErhXEZiGLYpS1-4" value="&lt;font style=&quot;font-size: 14px;&quot;&gt;Target group&lt;br&gt;Nginx website&lt;/font&gt;" style="fillColor=none;strokeColor=#5A6C86;dashed=1;verticalAlign=top;fontStyle=0;fontColor=#5A6C86;whiteSpace=wrap;html=1;" parent="80YRyTSErhXEZiGLYpS1-3" vertex="1">
          <mxGeometry x="20" y="340" width="180" height="140" as="geometry" />
        </mxCell>
        <mxCell id="80YRyTSErhXEZiGLYpS1-12" style="edgeStyle=orthogonalEdgeStyle;rounded=0;orthogonalLoop=1;jettySize=auto;html=1;entryX=0.5;entryY=0;entryDx=0;entryDy=0;fillColor=#f8cecc;strokeColor=#b85450;" parent="80YRyTSErhXEZiGLYpS1-3" source="80YRyTSErhXEZiGLYpS1-5" target="80YRyTSErhXEZiGLYpS1-4" edge="1">
          <mxGeometry relative="1" as="geometry" />
        </mxCell>
        <mxCell id="80YRyTSErhXEZiGLYpS1-13" style="edgeStyle=orthogonalEdgeStyle;rounded=0;orthogonalLoop=1;jettySize=auto;html=1;entryX=0.5;entryY=0;entryDx=0;entryDy=0;fillColor=#ffe6cc;strokeColor=#d79b00;" parent="80YRyTSErhXEZiGLYpS1-3" source="80YRyTSErhXEZiGLYpS1-5" target="80YRyTSErhXEZiGLYpS1-10" edge="1">
          <mxGeometry relative="1" as="geometry" />
        </mxCell>
        <mxCell id="80YRyTSErhXEZiGLYpS1-18" style="edgeStyle=orthogonalEdgeStyle;rounded=0;orthogonalLoop=1;jettySize=auto;html=1;exitX=0.145;exitY=0.855;exitDx=0;exitDy=0;exitPerimeter=0;entryX=0.5;entryY=0;entryDx=0;entryDy=0;fillColor=#d5e8d4;strokeColor=#82b366;" parent="80YRyTSErhXEZiGLYpS1-3" source="80YRyTSErhXEZiGLYpS1-5" target="80YRyTSErhXEZiGLYpS1-17" edge="1">
          <mxGeometry relative="1" as="geometry">
            <Array as="points">
              <mxPoint x="345" y="320" />
              <mxPoint x="240" y="320" />
              <mxPoint x="240" y="500" />
              <mxPoint x="370" y="500" />
            </Array>
          </mxGeometry>
        </mxCell>
        <mxCell id="80YRyTSErhXEZiGLYpS1-5" value="" style="outlineConnect=0;dashed=0;verticalLabelPosition=bottom;verticalAlign=top;align=center;html=1;shape=mxgraph.aws3.application_load_balancer;fillColor=#F58534;gradientColor=none;" parent="80YRyTSErhXEZiGLYpS1-3" vertex="1">
          <mxGeometry x="335.5" y="198" width="69" height="72" as="geometry" />
        </mxCell>
        <mxCell id="80YRyTSErhXEZiGLYpS1-10" value="&lt;font style=&quot;font-size: 14px;&quot;&gt;Target group&lt;br&gt;Apache website&lt;/font&gt;" style="fillColor=none;strokeColor=#5A6C86;dashed=1;verticalAlign=top;fontStyle=0;fontColor=#5A6C86;whiteSpace=wrap;html=1;" parent="80YRyTSErhXEZiGLYpS1-3" vertex="1">
          <mxGeometry x="260" y="340" width="220" height="140" as="geometry" />
        </mxCell>
        <mxCell id="80YRyTSErhXEZiGLYpS1-11" value="&lt;font style=&quot;font-size: 14px;&quot;&gt;Target group&lt;br&gt;Redirect to google.com&lt;/font&gt;" style="fillColor=none;strokeColor=#5A6C86;dashed=1;verticalAlign=top;fontStyle=0;fontColor=#5A6C86;whiteSpace=wrap;html=1;" parent="80YRyTSErhXEZiGLYpS1-3" vertex="1">
          <mxGeometry x="540" y="340" width="180" height="140" as="geometry" />
        </mxCell>
        <mxCell id="80YRyTSErhXEZiGLYpS1-14" style="edgeStyle=orthogonalEdgeStyle;rounded=0;orthogonalLoop=1;jettySize=auto;html=1;entryX=0.5;entryY=0;entryDx=0;entryDy=0;fillColor=#dae8fc;strokeColor=#6c8ebf;" parent="80YRyTSErhXEZiGLYpS1-3" source="80YRyTSErhXEZiGLYpS1-5" target="80YRyTSErhXEZiGLYpS1-11" edge="1">
          <mxGeometry relative="1" as="geometry">
            <mxPoint x="630" y="330" as="targetPoint" />
          </mxGeometry>
        </mxCell>
        <mxCell id="80YRyTSErhXEZiGLYpS1-15" value="&lt;font style=&quot;font-size: 14px;&quot;&gt;Application Load Balancer&lt;/font&gt;" style="text;html=1;strokeColor=none;fillColor=none;align=center;verticalAlign=middle;whiteSpace=wrap;rounded=0;" parent="80YRyTSErhXEZiGLYpS1-3" vertex="1">
          <mxGeometry x="320" y="270" width="100" height="30" as="geometry" />
        </mxCell>
        <mxCell id="80YRyTSErhXEZiGLYpS1-17" value="&lt;font style=&quot;font-size: 14px;&quot;&gt;Target group&lt;br&gt;Default&lt;/font&gt;" style="fillColor=none;strokeColor=#5A6C86;dashed=1;verticalAlign=top;fontStyle=0;fontColor=#5A6C86;whiteSpace=wrap;html=1;" parent="80YRyTSErhXEZiGLYpS1-3" vertex="1">
          <mxGeometry x="260" y="510" width="220" height="140" as="geometry" />
        </mxCell>
        <mxCell id="80YRyTSErhXEZiGLYpS1-19" value="" style="sketch=0;points=[[0,0,0],[0.25,0,0],[0.5,0,0],[0.75,0,0],[1,0,0],[0,1,0],[0.25,1,0],[0.5,1,0],[0.75,1,0],[1,1,0],[0,0.25,0],[0,0.5,0],[0,0.75,0],[1,0.25,0],[1,0.5,0],[1,0.75,0]];outlineConnect=0;fontColor=#232F3E;fillColor=#ED7100;strokeColor=#ffffff;dashed=0;verticalLabelPosition=bottom;verticalAlign=top;align=center;html=1;fontSize=12;fontStyle=0;aspect=fixed;shape=mxgraph.aws4.resourceIcon;resIcon=mxgraph.aws4.ec2;" parent="80YRyTSErhXEZiGLYpS1-3" vertex="1">
          <mxGeometry x="80.5" y="380.5" width="59" height="59" as="geometry" />
        </mxCell>
        <mxCell id="80YRyTSErhXEZiGLYpS1-20" value="EC2 instance" style="text;html=1;strokeColor=none;fillColor=none;align=center;verticalAlign=middle;whiteSpace=wrap;rounded=0;" parent="80YRyTSErhXEZiGLYpS1-3" vertex="1">
          <mxGeometry x="69.75" y="439.5" width="80.5" height="30" as="geometry" />
        </mxCell>
        <mxCell id="80YRyTSErhXEZiGLYpS1-21" value="" style="sketch=0;points=[[0,0,0],[0.25,0,0],[0.5,0,0],[0.75,0,0],[1,0,0],[0,1,0],[0.25,1,0],[0.5,1,0],[0.75,1,0],[1,1,0],[0,0.25,0],[0,0.5,0],[0,0.75,0],[1,0.25,0],[1,0.5,0],[1,0.75,0]];outlineConnect=0;fontColor=#232F3E;fillColor=#ED7100;strokeColor=#ffffff;dashed=0;verticalLabelPosition=bottom;verticalAlign=top;align=center;html=1;fontSize=12;fontStyle=0;aspect=fixed;shape=mxgraph.aws4.resourceIcon;resIcon=mxgraph.aws4.ec2;" parent="80YRyTSErhXEZiGLYpS1-3" vertex="1">
          <mxGeometry x="335.75" y="391" width="59" height="59" as="geometry" />
        </mxCell>
        <mxCell id="80YRyTSErhXEZiGLYpS1-22" value="EC2 instance" style="text;html=1;strokeColor=none;fillColor=none;align=center;verticalAlign=middle;whiteSpace=wrap;rounded=0;" parent="80YRyTSErhXEZiGLYpS1-3" vertex="1">
          <mxGeometry x="325" y="450" width="80.5" height="30" as="geometry" />
        </mxCell>
        <mxCell id="80YRyTSErhXEZiGLYpS1-27" value="" style="sketch=0;points=[[0,0,0],[0.25,0,0],[0.5,0,0],[0.75,0,0],[1,0,0],[0,1,0],[0.25,1,0],[0.5,1,0],[0.75,1,0],[1,1,0],[0,0.25,0],[0,0.5,0],[0,0.75,0],[1,0.25,0],[1,0.5,0],[1,0.75,0]];outlineConnect=0;fontColor=#232F3E;fillColor=#ED7100;strokeColor=#ffffff;dashed=0;verticalLabelPosition=bottom;verticalAlign=top;align=center;html=1;fontSize=12;fontStyle=0;aspect=fixed;shape=mxgraph.aws4.resourceIcon;resIcon=mxgraph.aws4.ec2;" parent="80YRyTSErhXEZiGLYpS1-3" vertex="1">
          <mxGeometry x="340.5" y="561" width="59" height="59" as="geometry" />
        </mxCell>
        <mxCell id="80YRyTSErhXEZiGLYpS1-28" value="EC2 instance" style="text;html=1;strokeColor=none;fillColor=none;align=center;verticalAlign=middle;whiteSpace=wrap;rounded=0;" parent="80YRyTSErhXEZiGLYpS1-3" vertex="1">
          <mxGeometry x="329.75" y="620" width="80.5" height="30" as="geometry" />
        </mxCell>
        <mxCell id="80YRyTSErhXEZiGLYpS1-16" value="&lt;font style=&quot;font-size: 14px;&quot;&gt;apache-susel.ddns.net&lt;br&gt;&lt;/font&gt;" style="text;html=1;strokeColor=#d79b00;fillColor=#ffe6cc;align=center;verticalAlign=middle;whiteSpace=wrap;rounded=0;" parent="1" vertex="1">
          <mxGeometry x="320" y="160" width="100" height="30" as="geometry" />
        </mxCell>
        <mxCell id="80YRyTSErhXEZiGLYpS1-36" style="edgeStyle=orthogonalEdgeStyle;rounded=0;orthogonalLoop=1;jettySize=auto;html=1;entryX=0.5;entryY=0;entryDx=0;entryDy=0;" parent="1" source="80YRyTSErhXEZiGLYpS1-29" target="80YRyTSErhXEZiGLYpS1-16" edge="1">
          <mxGeometry relative="1" as="geometry" />
        </mxCell>
        <mxCell id="80YRyTSErhXEZiGLYpS1-37" style="edgeStyle=orthogonalEdgeStyle;rounded=0;orthogonalLoop=1;jettySize=auto;html=1;entryX=0.5;entryY=0;entryDx=0;entryDy=0;" parent="1" source="80YRyTSErhXEZiGLYpS1-29" target="80YRyTSErhXEZiGLYpS1-34" edge="1">
          <mxGeometry relative="1" as="geometry" />
        </mxCell>
        <mxCell id="80YRyTSErhXEZiGLYpS1-38" style="edgeStyle=orthogonalEdgeStyle;rounded=0;orthogonalLoop=1;jettySize=auto;html=1;entryX=0.5;entryY=0;entryDx=0;entryDy=0;" parent="1" source="80YRyTSErhXEZiGLYpS1-29" target="80YRyTSErhXEZiGLYpS1-33" edge="1">
          <mxGeometry relative="1" as="geometry" />
        </mxCell>
        <mxCell id="80YRyTSErhXEZiGLYpS1-39" style="edgeStyle=orthogonalEdgeStyle;rounded=0;orthogonalLoop=1;jettySize=auto;html=1;entryX=0.5;entryY=0;entryDx=0;entryDy=0;" parent="1" source="80YRyTSErhXEZiGLYpS1-29" target="80YRyTSErhXEZiGLYpS1-35" edge="1">
          <mxGeometry relative="1" as="geometry" />
        </mxCell>
        <mxCell id="80YRyTSErhXEZiGLYpS1-29" value="" style="sketch=0;outlineConnect=0;fontColor=#232F3E;gradientColor=none;fillColor=#232F3D;strokeColor=none;dashed=0;verticalLabelPosition=bottom;verticalAlign=top;align=center;html=1;fontSize=12;fontStyle=0;aspect=fixed;pointerEvents=1;shape=mxgraph.aws4.user;" parent="1" vertex="1">
          <mxGeometry x="386" y="32" width="78" height="78" as="geometry" />
        </mxCell>
        <mxCell id="80YRyTSErhXEZiGLYpS1-33" value="&lt;font style=&quot;font-size: 14px;&quot;&gt;nginx-susel.ddns.net&lt;br&gt;&lt;/font&gt;" style="text;html=1;strokeColor=#b85450;fillColor=#f8cecc;align=center;verticalAlign=middle;whiteSpace=wrap;rounded=0;" parent="1" vertex="1">
          <mxGeometry x="210" y="160" width="100" height="30" as="geometry" />
        </mxCell>
        <mxCell id="80YRyTSErhXEZiGLYpS1-34" value="&lt;font style=&quot;font-size: 14px;&quot;&gt;google-susel.ddns.net&lt;br&gt;&lt;/font&gt;" style="text;html=1;strokeColor=#6c8ebf;fillColor=#dae8fc;align=center;verticalAlign=middle;whiteSpace=wrap;rounded=0;" parent="1" vertex="1">
          <mxGeometry x="430" y="160" width="100" height="30" as="geometry" />
        </mxCell>
        <mxCell id="80YRyTSErhXEZiGLYpS1-35" value="&lt;font style=&quot;font-size: 14px;&quot;&gt;susel.ddns.net&lt;br&gt;&lt;/font&gt;" style="text;html=1;strokeColor=#82b366;fillColor=#d5e8d4;align=center;verticalAlign=middle;whiteSpace=wrap;rounded=0;" parent="1" vertex="1">
          <mxGeometry x="540" y="160" width="100" height="30" as="geometry" />
        </mxCell>
        <mxCell id="80YRyTSErhXEZiGLYpS1-40" style="edgeStyle=orthogonalEdgeStyle;rounded=0;orthogonalLoop=1;jettySize=auto;html=1;entryX=0.5;entryY=0;entryDx=0;entryDy=0;entryPerimeter=0;fillColor=#ffe6cc;strokeColor=#d79b00;" parent="1" source="80YRyTSErhXEZiGLYpS1-16" target="80YRyTSErhXEZiGLYpS1-5" edge="1">
          <mxGeometry relative="1" as="geometry" />
        </mxCell>
        <mxCell id="80YRyTSErhXEZiGLYpS1-43" style="edgeStyle=orthogonalEdgeStyle;rounded=0;orthogonalLoop=1;jettySize=auto;html=1;entryX=0.145;entryY=0.145;entryDx=0;entryDy=0;entryPerimeter=0;fillColor=#f8cecc;strokeColor=#b85450;" parent="1" source="80YRyTSErhXEZiGLYpS1-33" target="80YRyTSErhXEZiGLYpS1-5" edge="1">
          <mxGeometry relative="1" as="geometry">
            <Array as="points">
              <mxPoint x="260" y="370" />
              <mxPoint x="405" y="370" />
            </Array>
          </mxGeometry>
        </mxCell>
        <mxCell id="80YRyTSErhXEZiGLYpS1-44" style="edgeStyle=orthogonalEdgeStyle;rounded=0;orthogonalLoop=1;jettySize=auto;html=1;entryX=0.855;entryY=0.145;entryDx=0;entryDy=0;entryPerimeter=0;fillColor=#dae8fc;strokeColor=#6c8ebf;" parent="1" source="80YRyTSErhXEZiGLYpS1-34" target="80YRyTSErhXEZiGLYpS1-5" edge="1">
          <mxGeometry relative="1" as="geometry">
            <Array as="points">
              <mxPoint x="480" y="334" />
              <mxPoint x="455" y="334" />
            </Array>
          </mxGeometry>
        </mxCell>
        <mxCell id="80YRyTSErhXEZiGLYpS1-45" style="edgeStyle=orthogonalEdgeStyle;rounded=0;orthogonalLoop=1;jettySize=auto;html=1;entryX=0.855;entryY=0.145;entryDx=0;entryDy=0;entryPerimeter=0;fillColor=#d5e8d4;strokeColor=#82b366;" parent="1" source="80YRyTSErhXEZiGLYpS1-35" target="80YRyTSErhXEZiGLYpS1-5" edge="1">
          <mxGeometry relative="1" as="geometry">
            <Array as="points">
              <mxPoint x="590" y="488" />
            </Array>
          </mxGeometry>
        </mxCell>
        <mxCell id="80YRyTSErhXEZiGLYpS1-46" value="Application Load Balancer routing traffic scheme&amp;nbsp;" style="text;strokeColor=none;fillColor=none;html=1;fontSize=24;fontStyle=1;verticalAlign=middle;align=center;" parent="1" vertex="1">
          <mxGeometry x="375" width="100" height="40" as="geometry" />
        </mxCell>
      </root>
    </mxGraphModel>
  </diagram>
</mxfile>
